<svg width="458" height="218" viewBox="0 0 458 218" fill="none" xmlns="http://www.w3.org/2000/svg">
<g filter="url(#filter0_f_18_252)">
<path d="M50.463 159.271L423.127 20.791L75.7834 177.695L50.463 159.271Z" fill="url(#paint0_linear_18_252)"/>
</g>
<g filter="url(#filter1_f_18_252)">
<path d="M57.1576 154.48L430.937 16C430.937 16 117.996 173.378 82.5537 172.904C47.1115 172.43 64.4593 165.318 57.1576 154.48Z" fill="url(#paint1_linear_18_252)"/>
</g>
<g filter="url(#filter2_f_18_252)">
<path d="M58.8822 158.073L431.546 19.5932L84.2025 176.497C60.1413 179.609 50.8148 178.326 58.8822 158.073Z" fill="url(#paint2_linear_18_252)"/>
</g>
<g filter="url(#filter3_f_18_252)">
<path d="M48.8403 159.271L421.504 20.791L74.1607 177.695C50.0995 180.807 40.773 179.524 48.8403 159.271Z" fill="url(#paint3_linear_18_252)"/>
</g>
<path d="M211.435 96.2485C208.328 97.8655 206.517 100.679 203.088 100.679C199.775 100.679 198.131 103.069 195.338 104.568C194.861 104.824 194.349 104.533 193.893 104.913C193.382 105.34 193.02 106 192.448 106.341C191.812 106.721 189.309 108.367 188.734 108.113C186.189 106.988 184.767 107.869 182.221 109.344C180.819 110.156 179.276 109.938 177.819 110.648C175.657 111.703 173.354 112.338 171.169 113.356C170.207 113.804 164.652 118.323 163.556 116.852C163.003 116.11 157.042 118.873 156.608 119.018C154.006 119.882 151.708 120.175 149.018 120.175C143.684 120.175 137.936 120.548 134.985 125.935C134.041 127.657 131.586 129.379 129.802 129.824C127.249 130.461 126.296 131.325 124.414 128.421C122.135 124.905 115.318 132.022 112.329 133.27C111.619 133.566 110.947 133.868 110.403 134.451C109.811 135.087 108.478 135 107.674 135.338C104.079 136.848 100.762 138.985 97.2182 140.507C96.6825 140.737 96.4758 141.038 95.8653 140.999C95.3171 140.964 95.3934 140.162 94.8105 140.162C94.2671 140.162 92.1009 141.324 91.5314 141.664C88.5441 143.445 85.3385 145.837 82.1529 147.104C80.782 147.649 79.0745 148.84 77.7044 148.187C76.1666 147.453 73.4086 149.869 72.0176 150.402C70.5275 150.973 69.0186 150.979 67.4774 151.633C66.3415 152.115 65.0551 153.1 63.8773 153.381C61.7487 153.888 59.6398 156.95 57.2734 156.95C56.296 156.95 55.5502 157.464 54.751 158.057C53.6357 158.886 51.8031 161.38 50.463 161.38" stroke="url(#paint4_linear_18_252)" stroke-width="3" stroke-linecap="round"/>
<path d="M72.1757 179.172C75.2409 177.466 76.981 174.601 80.4085 174.502C83.7207 174.406 85.3036 171.97 88.059 170.391C88.5293 170.121 89.0485 170.398 89.4944 170.005C89.9946 169.563 90.3397 168.893 90.9028 168.536C91.5299 168.138 93.9907 166.42 94.5719 166.657C97.1436 167.708 98.5432 166.787 101.051 165.239C102.433 164.386 103.981 164.561 105.419 163.808C107.554 162.691 109.841 161.99 111.999 160.91C112.949 160.434 118.389 155.757 119.522 157.196C120.093 157.922 125.983 154.987 126.413 154.831C128.992 153.891 131.282 153.533 133.971 153.455C139.304 153.302 145.04 152.763 147.856 147.293C148.756 145.544 151.167 143.752 152.939 143.256C155.476 142.545 156.406 141.654 158.361 144.503C160.726 147.952 167.363 140.64 170.319 139.307C171.022 138.991 171.686 138.67 172.215 138.071C172.791 137.419 174.126 137.467 174.921 137.106C178.478 135.493 181.74 133.261 185.244 131.637C185.774 131.392 185.973 131.085 186.584 131.106C187.133 131.125 187.077 131.929 187.66 131.913C188.203 131.897 190.339 130.673 190.9 130.317C193.842 128.45 196.986 125.967 200.139 124.609C201.496 124.024 203.173 122.784 204.559 123.398C206.114 124.087 208.811 121.593 210.188 121.019C211.663 120.405 213.172 120.356 214.696 119.658C215.819 119.144 217.081 118.122 218.251 117.807C220.366 117.238 222.398 114.117 224.763 114.049C225.74 114.021 226.473 113.486 227.257 112.869C228.351 112.008 230.121 109.462 231.46 109.424" stroke="url(#paint5_linear_18_252)" stroke-width="3" stroke-linecap="round"/>
<path d="M65.4196 169.212C71.7756 168.237 78.2585 163.372 83.9473 160.547C85.608 159.723 85.8253 159.769 87.4098 159.883C92.6171 160.255 97.6679 158.676 102.636 157.2C107.134 155.863 111.593 154.275 115.775 152.031C116.618 151.578 116.632 151.883 117.288 151.883C118.075 151.883 118.856 151.158 119.421 150.677C121.291 149.081 123.113 147.481 125.176 146.172C126.177 145.537 127.278 145.082 128.249 144.4C131.131 142.373 134.216 140.733 137.1 138.714C138.992 137.389 140.79 136.93 142.879 135.981C146.034 134.548 149.424 133.716 152.578 132.264C153.289 131.938 153.679 132.472 154.344 132.88C155.717 133.722 157.527 132.426 158.884 131.797C161.368 130.644 164.622 127.563 167.368 127.563C169.133 127.563 171.062 126.069 172.78 125.569C175.504 124.777 178.917 124.395 181.195 122.492C184.849 119.442 189.67 118.774 193.83 116.585C195.227 115.85 196.727 115.969 198.256 115.551C203.341 114.161 208.269 112.333 213.183 110.382C218.286 108.355 223.718 106.855 228.547 104.105C232.446 101.884 235.565 99.0021 239.783 97.7785C243.575 96.6782 247.671 95.0042 251.133 93.0032C253.817 91.452 255.508 89.7889 258.586 89.4586" stroke="url(#paint6_linear_18_252)" stroke-opacity="0.5" stroke-width="3" stroke-linecap="round"/>
<g filter="url(#filter4_f_18_252)">
<path d="M20.9376 178.266L433.231 33.9915L48.9506 197.461L20.9376 178.266Z" fill="url(#paint7_linear_18_252)"/>
</g>
<g filter="url(#filter5_f_18_252)">
<path d="M28.3441 173.275L441.872 29C441.872 29 95.6522 192.964 56.441 192.47C17.2297 191.976 36.4223 184.567 28.3441 173.275Z" fill="url(#paint8_linear_18_252)"/>
</g>
<g filter="url(#filter6_f_18_252)">
<path d="M30.2521 177.018L442.546 32.7435L58.2651 196.214C31.6451 199.456 21.3269 198.119 30.2521 177.018Z" fill="url(#paint9_linear_18_252)"/>
</g>
<g filter="url(#filter7_f_18_252)">
<path d="M19.1424 178.266L431.436 33.9915L47.1553 197.461C20.5354 200.704 10.2171 199.367 19.1424 178.266Z" fill="url(#paint10_linear_18_252)"/>
</g>
<path d="M199.027 112.607C195.59 114.291 193.587 117.223 189.793 117.223C186.127 117.223 184.31 119.713 181.218 121.275C180.691 121.542 180.124 121.238 179.62 121.634C179.055 122.078 178.655 122.766 178.022 123.121C177.318 123.517 174.548 125.233 173.912 124.968C171.097 123.796 169.524 124.714 166.707 126.25C165.156 127.097 163.449 126.869 161.837 127.609C159.445 128.708 156.897 129.37 154.48 130.43C153.416 130.897 147.27 135.605 146.057 134.072C145.446 133.299 138.851 136.179 138.37 136.329C135.492 137.229 132.949 137.534 129.973 137.534C124.072 137.534 117.713 137.923 114.447 143.535C113.403 145.33 110.687 147.123 108.714 147.587C105.889 148.251 104.835 149.152 102.752 146.125C100.232 142.462 92.6891 149.878 89.383 151.177C88.5976 151.486 87.8537 151.8 87.252 152.408C86.5973 153.07 85.1226 152.98 84.2331 153.332C80.2549 154.905 76.585 157.132 72.6649 158.717C72.0722 158.957 71.8436 159.27 71.1681 159.23C70.5616 159.194 70.646 158.358 70.0011 158.358C69.4 158.358 67.0034 159.569 66.3734 159.922C63.0683 161.779 59.5218 164.271 55.9975 165.59C54.4808 166.158 52.5917 167.4 51.0759 166.719C49.3746 165.954 46.3233 168.471 44.7844 169.027C43.1358 169.622 41.4664 169.627 39.7614 170.309C38.5047 170.811 37.0814 171.837 35.7785 172.13C33.4235 172.659 31.0903 175.848 28.4722 175.848C27.3909 175.848 26.5658 176.384 25.6816 177.002C24.4477 177.866 22.4203 180.464 20.9376 180.464" stroke="url(#paint11_linear_18_252)" stroke-width="3" stroke-linecap="round"/>
<path d="M44.9593 199C48.3504 197.223 50.2757 194.238 54.0677 194.135C57.732 194.035 59.4832 191.497 62.5316 189.852C63.0521 189.571 63.6264 189.859 64.1198 189.449C64.6731 188.99 65.0549 188.292 65.6779 187.919C66.3717 187.505 69.0942 185.714 69.7372 185.962C72.5824 187.057 74.1308 186.097 76.9053 184.484C78.4341 183.596 80.1466 183.778 81.7383 182.994C84.1 181.83 86.6297 181.099 89.0177 179.974C90.069 179.478 96.0872 174.606 97.3404 176.105C97.9724 176.861 104.488 173.804 104.964 173.64C107.818 172.662 110.352 172.288 113.327 172.208C119.226 172.047 125.572 171.486 128.687 165.787C129.684 163.965 132.351 162.098 134.311 161.581C137.118 160.841 138.147 159.912 140.309 162.881C142.926 166.474 150.269 158.856 153.54 157.467C154.317 157.137 155.052 156.803 155.637 156.179C156.274 155.5 157.751 155.55 158.631 155.174C162.566 153.493 166.175 151.168 170.052 149.477C170.638 149.221 170.858 148.902 171.534 148.923C172.142 148.943 172.079 149.781 172.724 149.763C173.325 149.747 175.688 148.472 176.309 148.101C179.563 146.156 183.043 143.569 186.531 142.154C188.032 141.545 189.887 140.253 191.42 140.892C193.141 141.61 196.125 139.011 197.648 138.414C199.28 137.775 200.949 137.724 202.635 136.996C203.878 136.46 205.274 135.396 206.569 135.068C208.909 134.475 211.156 131.223 213.773 131.152C214.854 131.123 215.665 130.566 216.532 129.923C217.743 129.026 219.701 126.374 221.183 126.333" stroke="url(#paint12_linear_18_252)" stroke-width="3" stroke-linecap="round"/>
<path d="M37.4847 188.624C44.5166 187.608 51.689 182.539 57.9828 179.596C59.82 178.737 60.0604 178.786 61.8135 178.904C67.5745 179.292 73.1624 177.647 78.6584 176.109C83.6347 174.716 88.5685 173.062 93.1948 170.723C94.128 170.251 94.1427 170.569 94.8692 170.569C95.7399 170.569 96.604 169.814 97.2285 169.313C99.2976 167.65 101.314 165.983 103.596 164.62C104.704 163.958 105.922 163.484 106.996 162.773C110.184 160.661 113.597 158.952 116.788 156.849C118.881 155.469 120.87 154.991 123.181 154.002C126.672 152.509 130.423 151.642 133.912 150.13C134.698 149.789 135.129 150.346 135.865 150.771C137.385 151.649 139.387 150.299 140.888 149.643C143.637 148.442 147.237 145.232 150.275 145.232C152.227 145.232 154.362 143.675 156.262 143.154C159.276 142.329 163.051 141.931 165.572 139.949C169.614 136.771 174.948 136.074 179.551 133.794C181.096 133.028 182.755 133.152 184.447 132.717C190.073 131.269 195.525 129.364 200.962 127.331C206.608 125.22 212.617 123.657 217.959 120.792C222.273 118.478 225.724 115.476 230.39 114.201C234.586 113.054 239.117 111.31 242.948 109.226C245.917 107.609 247.787 105.877 251.192 105.533" stroke="url(#paint13_linear_18_252)" stroke-opacity="0.5" stroke-width="3" stroke-linecap="round"/>
<defs>
<filter id="filter0_f_18_252" x="30.463" y="0.790955" width="412.663" height="196.904" filterUnits="userSpaceOnUse" color-interpolation-filters="sRGB">
<feFlood flood-opacity="0" result="BackgroundImageFix"/>
<feBlend mode="normal" in="SourceGraphic" in2="BackgroundImageFix" result="shape"/>
<feGaussianBlur stdDeviation="10" result="effect1_foregroundBlur_18_252"/>
</filter>
<filter id="filter1_f_18_252" x="54.1576" y="13" width="379.779" height="162.905" filterUnits="userSpaceOnUse" color-interpolation-filters="sRGB">
<feFlood flood-opacity="0" result="BackgroundImageFix"/>
<feBlend mode="normal" in="SourceGraphic" in2="BackgroundImageFix" result="shape"/>
<feGaussianBlur stdDeviation="1.5" result="effect1_foregroundBlur_18_252"/>
</filter>
<filter id="filter2_f_18_252" x="41.0418" y="4.5932" width="405.504" height="188.186" filterUnits="userSpaceOnUse" color-interpolation-filters="sRGB">
<feFlood flood-opacity="0" result="BackgroundImageFix"/>
<feBlend mode="normal" in="SourceGraphic" in2="BackgroundImageFix" result="shape"/>
<feGaussianBlur stdDeviation="7.5" result="effect1_foregroundBlur_18_252"/>
</filter>
<filter id="filter3_f_18_252" x="31" y="5.79095" width="405.504" height="188.186" filterUnits="userSpaceOnUse" color-interpolation-filters="sRGB">
<feFlood flood-opacity="0" result="BackgroundImageFix"/>
<feBlend mode="normal" in="SourceGraphic" in2="BackgroundImageFix" result="shape"/>
<feGaussianBlur stdDeviation="7.5" result="effect1_foregroundBlur_18_252"/>
</filter>
<filter id="filter4_f_18_252" x="0.937645" y="13.9915" width="452.294" height="203.47" filterUnits="userSpaceOnUse" color-interpolation-filters="sRGB">
<feFlood flood-opacity="0" result="BackgroundImageFix"/>
<feBlend mode="normal" in="SourceGraphic" in2="BackgroundImageFix" result="shape"/>
<feGaussianBlur stdDeviation="10" result="effect1_foregroundBlur_18_252"/>
</filter>
<filter id="filter5_f_18_252" x="25.3441" y="26" width="419.528" height="169.471" filterUnits="userSpaceOnUse" color-interpolation-filters="sRGB">
<feFlood flood-opacity="0" result="BackgroundImageFix"/>
<feBlend mode="normal" in="SourceGraphic" in2="BackgroundImageFix" result="shape"/>
<feGaussianBlur stdDeviation="1.5" result="effect1_foregroundBlur_18_252"/>
</filter>
<filter id="filter6_f_18_252" x="12.1097" y="17.7435" width="445.436" height="194.806" filterUnits="userSpaceOnUse" color-interpolation-filters="sRGB">
<feFlood flood-opacity="0" result="BackgroundImageFix"/>
<feBlend mode="normal" in="SourceGraphic" in2="BackgroundImageFix" result="shape"/>
<feGaussianBlur stdDeviation="7.5" result="effect1_foregroundBlur_18_252"/>
</filter>
<filter id="filter7_f_18_252" x="1" y="18.9915" width="445.436" height="194.806" filterUnits="userSpaceOnUse" color-interpolation-filters="sRGB">
<feFlood flood-opacity="0" result="BackgroundImageFix"/>
<feBlend mode="normal" in="SourceGraphic" in2="BackgroundImageFix" result="shape"/>
<feGaussianBlur stdDeviation="7.5" result="effect1_foregroundBlur_18_252"/>
</filter>
<linearGradient id="paint0_linear_18_252" x1="408.843" y1="21.3853" x2="128.36" y2="158.782" gradientUnits="userSpaceOnUse">
<stop offset="0.120192" stop-color="#CEEAFF"/>
<stop offset="0.980769" stop-color="#D7F7FF"/>
</linearGradient>
<linearGradient id="paint1_linear_18_252" x1="416.611" y1="16.5943" x2="99.0196" y2="171.345" gradientUnits="userSpaceOnUse">
<stop offset="0.120192" stop-color="#CEEAFF"/>
<stop offset="0.644231" stop-color="#D7F7FF"/>
<stop offset="0.985577" stop-color="#AFAFAF" stop-opacity="0.3"/>
</linearGradient>
<linearGradient id="paint2_linear_18_252" x1="417.262" y1="20.1875" x2="136.779" y2="157.585" gradientUnits="userSpaceOnUse">
<stop offset="0.139423" stop-color="#D7F7FF"/>
<stop offset="0.932692" stop-color="#ADDEFF"/>
</linearGradient>
<linearGradient id="paint3_linear_18_252" x1="407.221" y1="21.3853" x2="67.4818" y2="183.703" gradientUnits="userSpaceOnUse">
<stop offset="0.139423" stop-color="#D7F7FF"/>
<stop offset="0.635288" stop-color="#ADDEFF"/>
<stop offset="0.980769" stop-color="#D7F7FF"/>
</linearGradient>
<linearGradient id="paint4_linear_18_252" x1="220.058" y1="96.2485" x2="46.9363" y2="151.587" gradientUnits="userSpaceOnUse">
<stop stop-color="#BBE1F4"/>
<stop offset="0.696927" stop-color="#BEE8FF"/>
<stop offset="0.903846" stop-color="#BDDDE9"/>
<stop offset="0.980769" stop-color="#A9C3CC"/>
</linearGradient>
<linearGradient id="paint5_linear_18_252" x1="113.731" y1="157.845" x2="65.9344" y2="176.397" gradientUnits="userSpaceOnUse">
<stop stop-color="#BEE8FF"/>
<stop offset="1" stop-color="#AECBD5" stop-opacity="0.35"/>
</linearGradient>
<linearGradient id="paint6_linear_18_252" x1="246.837" y1="89.0621" x2="61.4249" y2="160.058" gradientUnits="userSpaceOnUse">
<stop stop-color="#D1D8DD"/>
<stop offset="1" stop-color="#BEE8FF"/>
</linearGradient>
<linearGradient id="paint7_linear_18_252" x1="417.429" y1="34.6107" x2="114.598" y2="192.138" gradientUnits="userSpaceOnUse">
<stop offset="0.120192" stop-color="#CEEAFF"/>
<stop offset="0.980769" stop-color="#D7F7FF"/>
</linearGradient>
<linearGradient id="paint8_linear_18_252" x1="426.023" y1="29.6192" x2="83.0572" y2="207.079" gradientUnits="userSpaceOnUse">
<stop offset="0.120192" stop-color="#CEEAFF"/>
<stop offset="0.644231" stop-color="#D7F7FF"/>
<stop offset="0.985577" stop-color="#AFAFAF" stop-opacity="0.3"/>
</linearGradient>
<linearGradient id="paint9_linear_18_252" x1="426.743" y1="33.3627" x2="123.913" y2="190.89" gradientUnits="userSpaceOnUse">
<stop offset="0.139423" stop-color="#D7F7FF"/>
<stop offset="0.932692" stop-color="#ADDEFF"/>
</linearGradient>
<linearGradient id="paint10_linear_18_252" x1="415.634" y1="34.6107" x2="48.4757" y2="220.888" gradientUnits="userSpaceOnUse">
<stop offset="0.139423" stop-color="#D7F7FF"/>
<stop offset="0.635288" stop-color="#ADDEFF"/>
<stop offset="0.913462" stop-color="#D7F7FF"/>
<stop offset="0.985577" stop-color="#D7F7FF"/>
</linearGradient>
<linearGradient id="paint11_linear_18_252" x1="208.568" y1="112.607" x2="19.2757" y2="176.86" gradientUnits="userSpaceOnUse">
<stop stop-color="#BBE1F4"/>
<stop offset="0.696927" stop-color="#BEE8FF"/>
<stop offset="0.903846" stop-color="#BDDDE9"/>
<stop offset="0.980769" stop-color="#A9C3CC"/>
</linearGradient>
<linearGradient id="paint12_linear_18_252" x1="90.9338" y1="176.781" x2="38.9235" y2="198.218" gradientUnits="userSpaceOnUse">
<stop stop-color="#BEE8FF"/>
<stop offset="1" stop-color="#AECBD5" stop-opacity="0.35"/>
</linearGradient>
<linearGradient id="paint13_linear_18_252" x1="238.194" y1="105.12" x2="36.3595" y2="187.188" gradientUnits="userSpaceOnUse">
<stop stop-color="#D1D8DD"/>
<stop offset="1" stop-color="#BEE8FF"/>
</linearGradient>
</defs>
</svg>
