<svg width="37" height="37" viewBox="0 0 37 37" fill="none" xmlns="http://www.w3.org/2000/svg">
<path d="M18.5 1V4.88889M18.5 32.1189V36.0078M4.88889 18.5H1M36 18.5H32.1111M32.1111 4.88889L28.2222 8.77778M4.88889 4.88889L8.77778 8.77778M8.77778 28.2222L4.88889 32.1111M32.1111 32.1111L28.2222 28.2222M26.2778 18.5C26.2778 20.5628 25.4583 22.5411 23.9997 23.9997C22.5411 25.4583 20.5628 26.2778 18.5 26.2778C16.4372 26.2778 14.4589 25.4583 13.0003 23.9997C11.5417 22.5411 10.7222 20.5628 10.7222 18.5C10.7222 16.4372 11.5417 14.4589 13.0003 13.0003C14.4589 11.5417 16.4372 10.7222 18.5 10.7222C20.5628 10.7222 22.5411 11.5417 23.9997 13.0003C25.4583 14.4589 26.2778 16.4372 26.2778 18.5Z" stroke="#FA170B" stroke-width="1.5" stroke-linecap="round" stroke-linejoin="round"/>
</svg>
